<svg width="16" height="16" viewBox="0 0 16 16" fill="none" xmlns="http://www.w3.org/2000/svg">
<path fill-rule="evenodd" clip-rule="evenodd" d="M0 7.76223C0 12.0493 3.47515 15.5245 7.76223 15.5245C12.0493 15.5245 15.5245 12.0493 15.5245 7.76223C15.5245 3.47515 12.0493 0 7.76223 0C3.47515 0 0 3.47515 0 7.76223Z" fill="#C5C5C5"/>
<path d="M11.1125 10.3003L11.1125 10.3003L11.1116 10.2994L8.95152 8.21814L8.95128 8.21791L8.48284 7.77245L11.1115 5.24589C11.1688 5.1908 11.2164 5.12857 11.2466 5.05888C11.2758 4.99153 11.2939 4.91746 11.2939 4.84225C11.2939 4.76547 11.2825 4.69 11.2459 4.61886C11.2174 4.55334 11.1766 4.48561 11.1223 4.43343L11.1223 4.43338L11.1204 4.43166C11.0641 4.38304 11.0001 4.33786 10.9285 4.30916C10.8562 4.28024 10.7741 4.26934 10.6998 4.26934C10.6224 4.26934 10.5464 4.28651 10.4724 4.31386L10.4724 4.31384L10.4711 4.31434C10.3995 4.34304 10.3349 4.38841 10.2827 4.43861L7.23387 7.369C7.18006 7.42072 7.13877 7.48339 7.10952 7.55084L7.1095 7.55083L7.10898 7.55215C7.08039 7.62359 7.0623 7.69731 7.0623 7.77265C7.0623 7.84785 7.08032 7.92192 7.10952 7.98927C7.13877 8.05673 7.18006 8.11939 7.23387 8.17111L10.2827 11.1015L10.2827 11.1015L10.2837 11.1024C10.3963 11.2049 10.5434 11.2552 10.6944 11.2552C10.8478 11.2552 10.9948 11.193 11.1007 11.0912C11.2122 10.984 11.272 10.8473 11.2723 10.6989C11.278 10.5497 11.2181 10.4075 11.1125 10.3003Z" fill="white" stroke="white" stroke-width="0.1"/>
<path d="M4.41096 5.22406L4.41095 5.22408L4.41188 5.22497L6.57192 7.30628L6.57216 7.30651L7.0406 7.75196L4.41192 10.2785C4.35461 10.3336 4.30702 10.3958 4.2768 10.4655C4.24761 10.5329 4.22959 10.607 4.22959 10.6822C4.22959 10.7589 4.2409 10.8344 4.2775 10.9056C4.30608 10.9711 4.34687 11.0388 4.40115 11.091L4.4011 11.091L4.40309 11.0927C4.45929 11.1414 4.52331 11.1866 4.59497 11.2153C4.66719 11.2442 4.74933 11.2551 4.82364 11.2551C4.90107 11.2551 4.97707 11.2379 5.05105 11.2106L5.05106 11.2106L5.0523 11.2101C5.12396 11.1814 5.18851 11.136 5.24073 11.0858L8.28957 8.15541C8.34338 8.10369 8.38467 8.04103 8.41391 7.97357L8.41393 7.97358L8.41446 7.97226C8.44305 7.90082 8.46113 7.8271 8.46113 7.75177C8.46113 7.67656 8.44311 7.60249 8.41391 7.53514C8.38467 7.46768 8.34338 7.40502 8.28957 7.3533L5.24074 4.42291L5.24075 4.42289L5.23975 4.42199C5.12717 4.31947 4.98006 4.26917 4.82902 4.26917C4.67566 4.26917 4.52869 4.33139 4.4227 4.43326C4.31126 4.54037 4.2514 4.67709 4.25113 4.82555C4.24546 4.97475 4.30536 5.11692 4.41096 5.22406Z" fill="white" stroke="white" stroke-width="0.1"/>
</svg>
