<svg width="158" height="158" viewBox="0 0 158 158" fill="none" xmlns="http://www.w3.org/2000/svg">
<path d="M110.398 53.3491L128.231 35.5161L134.246 41.5319L116.414 59.3649L110.398 53.3491Z" fill="#34605A"/>
<path d="M139.465 38.5885L131.262 30.3847C130.046 29.1693 128.223 29.1693 127.312 30.3847L121.235 36.4616C120.019 37.677 120.019 39.5001 121.235 40.4116L129.438 48.6155C130.654 49.8308 132.477 49.8308 133.388 48.6155L139.465 42.5385C140.377 41.627 140.377 39.8039 139.465 38.5885Z" fill="currentColor"/>
<path d="M68.9731 16.4077H86.5962V41.6269H68.9731V16.4077Z" fill="#34605A"/>
<path d="M77.7846 151.923C111.011 151.923 137.946 124.988 137.946 91.7616C137.946 58.5353 111.011 31.6001 77.7846 31.6001C44.5583 31.6001 17.623 58.5353 17.623 91.7616C17.623 124.988 44.5583 151.923 77.7846 151.923Z" fill="#34605A"/>
<path d="M77.7846 140.681C104.802 140.681 126.704 118.779 126.704 91.7615C126.704 64.7442 104.802 42.8423 77.7846 42.8423C50.7672 42.8423 28.8654 64.7442 28.8654 91.7615C28.8654 118.779 50.7672 140.681 77.7846 140.681Z" fill="white"/>
<path d="M90.85 6.07715H65.0231C63.5038 6.07715 61.9846 7.29253 61.9846 9.11561V20.3579C61.9846 21.8771 63.2 23.3964 65.0231 23.3964H90.85C92.3692 23.3964 93.8885 22.181 93.8885 20.3579V9.11561C93.5846 7.29253 92.3692 6.07715 90.85 6.07715Z" fill="currentColor"/>
<path d="M77.1769 46.4883C76.8731 46.4883 76.2654 46.7921 76.2654 47.3998V52.869C76.2654 53.1729 76.5692 53.7806 77.1769 53.7806C77.7846 53.7806 78.0885 53.4767 78.0885 52.869V47.3998C77.7846 46.7921 77.4808 46.4883 77.1769 46.4883ZM77.1769 130.35C76.8731 130.35 76.2654 130.654 76.2654 131.261V136.731C76.2654 137.034 76.5692 137.642 77.1769 137.642C77.7846 137.642 78.0885 137.338 78.0885 136.731V131.261C77.7846 130.654 77.4808 130.35 77.1769 130.35ZM58.0346 58.946C58.3385 58.6421 58.6423 58.3383 58.3385 57.7306L55.6038 53.1729C55.3 52.869 54.9961 52.5652 54.3885 52.869C54.0846 53.1729 53.7808 53.4767 54.0846 54.0844L56.8192 58.6421C57.1231 59.2498 57.7308 59.2498 58.0346 58.946ZM97.5346 125.792C97.2308 125.488 96.9269 125.184 96.3192 125.488C96.0154 125.792 95.7115 126.096 96.0154 126.704L98.75 131.261C99.0538 131.565 99.3577 131.869 99.9654 131.565C100.269 131.261 100.269 130.654 100.269 130.35L97.5346 125.792ZM43.1462 73.5306C43.45 73.8344 44.0577 73.5306 44.3615 73.2267C44.6654 72.9229 44.3615 72.3152 44.0577 72.0114L39.5 69.2767C39.1962 68.9729 38.5885 69.2767 38.2846 69.5806C37.9808 69.8844 38.2846 70.4921 38.5885 70.796L43.1462 73.5306ZM111.815 111.511C111.512 111.208 110.904 111.511 110.6 111.815C110.296 112.119 110.6 112.727 110.904 113.031L115.462 115.765C115.765 116.069 116.373 115.765 116.677 115.461C116.981 115.158 116.677 114.55 116.373 114.246L111.815 111.511ZM39.5 92.6729C39.5 92.369 39.1962 91.7614 38.5885 91.7614H33.4231C33.1192 91.7614 32.5115 92.0652 32.5115 92.6729C32.5115 92.9767 32.8154 93.5844 33.4231 93.5844H38.8923C39.1962 93.2806 39.5 92.9767 39.5 92.6729ZM122.45 91.7614H116.981C116.677 91.7614 116.069 92.0652 116.069 92.6729C116.069 92.9767 116.373 93.5844 116.981 93.5844H122.45C122.754 93.5844 123.362 93.2806 123.362 92.6729C123.058 92.0652 122.754 91.7614 122.45 91.7614ZM44.0577 111.511L39.5 114.246C39.1962 114.55 38.8923 114.854 39.1962 115.461C39.5 115.765 39.8038 116.069 40.4115 115.765L44.9692 113.031C45.2731 112.727 45.5769 112.423 45.2731 111.815C44.6654 111.208 44.3615 111.208 44.0577 111.511ZM112.423 73.5306L116.981 70.796C117.285 70.4921 117.588 70.1883 117.285 69.5806C116.981 69.2767 116.677 68.9729 116.069 69.2767L111.512 72.0114C111.208 72.3152 110.904 72.6191 111.208 73.2267C111.512 73.8344 112.119 73.8344 112.423 73.5306ZM58.3385 125.792L55.6038 130.35C55.3 130.654 55.6038 131.261 55.9077 131.565C56.2115 131.869 56.8192 131.565 57.1231 131.261L59.8577 126.704C60.1615 126.4 59.8577 125.792 59.5538 125.488C58.9462 125.184 58.3385 125.488 58.3385 125.792ZM99.9654 53.1729L97.2308 58.0344C96.9269 58.3383 97.2308 58.946 97.5346 59.2498C97.8384 59.5537 98.4461 59.2498 98.75 58.946L101.485 54.3883C101.788 54.0844 101.485 53.4767 101.181 53.1729C100.877 52.869 100.269 52.869 99.9654 53.1729Z" fill="#101B19"/>
<path d="M58.3931 82.2446C58.8593 82.2446 59.0923 82.2446 59.5585 82.4792C59.7916 82.7137 60.2577 82.9482 60.4908 83.1828L61.1901 82.2446C60.4908 81.3065 59.3254 80.8374 58.16 80.8374C56.9946 80.8374 56.0623 81.3065 55.3631 82.0101C54.6639 82.7137 54.1977 83.6519 54.1977 84.8245C54.1977 85.9972 54.6639 86.9354 55.3631 87.639C56.0623 88.3426 56.9946 88.8117 58.16 88.8117C59.3254 88.8117 60.2577 88.3426 61.1901 87.4044L60.4908 86.7008C60.2577 86.9354 59.7916 87.1699 59.5585 87.4044C59.3254 87.639 58.8593 87.639 58.3931 87.639C57.6939 87.639 56.9946 87.4044 56.5285 86.9354C56.0623 86.4663 55.8292 85.7627 55.8292 85.0591C55.8292 84.3555 56.0623 83.6519 56.5285 83.1828C56.9946 82.4792 57.6939 82.2446 58.3931 82.2446ZM66.0847 81.0719C64.9193 81.0719 63.987 81.541 63.2878 82.2446C62.5885 82.9482 62.1224 83.8864 62.1224 85.0591C62.1224 86.2318 62.5885 87.1699 63.2878 87.8735C63.987 88.5771 64.9193 89.0462 66.0847 89.0462C67.2501 89.0462 68.1824 88.5771 68.8817 87.8735C69.5809 87.1699 70.0471 86.2318 70.0471 85.0591C70.0471 83.8864 69.5809 82.9482 68.8817 82.2446C68.1824 81.3065 67.2501 81.0719 66.0847 81.0719ZM67.9493 86.9354C67.4832 87.4044 66.7839 87.639 66.0847 87.639C65.3855 87.639 64.6862 87.4044 64.2201 86.9354C63.7539 86.4663 63.5208 85.7627 63.5208 85.0591C63.5208 84.3555 63.7539 83.6519 64.2201 83.1828C64.6862 82.7137 65.3855 82.4792 66.0847 82.4792C66.7839 82.4792 67.4832 82.7137 67.9493 83.1828C68.4155 83.6519 68.6486 84.3555 68.6486 85.0591C68.8817 85.7627 68.4155 86.4663 67.9493 86.9354ZM75.874 85.9972L73.7763 81.3065H71.6786V88.8117H73.0771V82.9482L75.6409 88.1081H76.3402L78.904 82.9482V88.8117H80.3025V81.3065H78.2048L75.874 85.9972ZM82.4002 81.3065H83.5656V88.8117H82.4002V81.3065ZM91.4903 86.9354L87.0618 81.3065H85.6633V88.8117H87.0618V83.1828L91.2572 88.8117H92.6557V81.3065H91.4903V86.9354ZM100.114 85.0591V87.1699C99.6481 87.4044 98.9488 87.639 98.2496 87.639C97.5504 87.639 96.8511 87.4044 96.385 86.9354C95.9188 86.4663 95.6857 85.7627 95.6857 85.0591C95.6857 84.3555 95.9188 83.6519 96.385 83.1828C96.8511 82.7137 97.5504 82.4792 98.2496 82.4792C98.7158 82.4792 98.9488 82.4792 99.1819 82.7137C99.415 82.7137 99.8811 82.9482 100.114 83.1828L100.813 82.2446C100.114 81.541 99.1819 81.3065 98.0165 81.3065C96.8511 81.3065 95.9188 81.7756 95.2196 82.4792C94.5203 83.1828 94.0542 84.1209 94.0542 85.2936C94.0542 86.4663 94.5203 87.4044 95.2196 88.1081C95.9188 88.8117 96.8511 89.2807 98.0165 89.2807C99.415 89.2807 100.347 88.8117 101.047 88.1081V85.5281H100.114V85.0591ZM61.1901 97.0205C60.2577 96.7859 59.5585 96.5514 59.3254 96.3169C59.0923 96.0823 58.8593 95.8478 58.8593 95.3787C58.8593 94.9096 59.0923 94.6751 59.3254 94.4406C59.5585 94.206 60.0247 94.206 60.4908 94.206C60.957 94.206 61.4231 94.206 61.8893 94.4406C62.3554 94.6751 62.8216 94.9096 63.0547 95.1442L63.987 93.9715C63.5208 93.5024 63.0547 93.2679 62.3555 93.0333C61.6562 92.7988 61.1901 92.7988 60.4908 92.7988C59.5585 92.7988 58.6262 93.0333 58.16 93.5024C57.4608 93.9715 57.2277 94.6751 57.2277 95.6133C57.2277 96.5514 57.4608 97.255 58.16 97.7241C58.3931 97.9586 58.8593 98.1932 59.0923 98.1932C59.5585 98.4277 60.0247 98.4277 60.7239 98.6622C61.4231 98.8968 61.8893 99.1313 62.3555 99.1313C62.5885 99.3658 62.8216 99.6004 62.8216 100.069C62.8216 100.539 62.5885 100.773 62.3555 101.008C62.1224 101.242 61.6562 101.242 61.1901 101.242C60.0247 101.242 59.0923 100.773 58.16 99.8349L57.2277 101.008C58.3931 102.18 59.7916 102.649 61.1901 102.649C62.1224 102.649 63.0547 102.415 63.7539 101.946C64.4532 101.477 64.6862 100.773 64.6862 99.8349C64.6862 98.8968 64.4532 98.4277 63.987 97.9586C63.0547 97.4895 62.3555 97.255 61.1901 97.0205ZM70.9794 92.7988C69.5809 92.7988 68.4155 93.2679 67.2501 94.206C66.3178 95.1442 65.8516 96.3169 65.8516 97.7241C65.8516 99.1313 66.3178 100.304 67.2501 101.242C68.1824 102.18 69.3478 102.649 70.9794 102.649C72.3778 102.649 73.5432 102.18 74.7086 101.242C75.6409 100.304 76.1071 99.1313 76.1071 97.7241C76.1071 96.3169 75.6409 95.1442 74.7086 94.206C73.5432 93.2679 72.3778 92.7988 70.9794 92.7988ZM73.3102 100.304C72.6109 101.008 71.9117 101.242 70.7463 101.242C69.814 101.242 68.8817 101.008 68.1824 100.304C67.4832 99.6004 67.2501 98.6622 67.2501 97.7241C67.2501 96.7859 67.4832 95.8478 68.1824 95.1442C68.8817 94.4406 69.5809 94.206 70.7463 94.206C71.6786 94.206 72.6109 94.4406 73.3102 95.1442C74.0094 95.8478 74.2425 96.7859 74.2425 97.7241C74.2425 98.6622 74.0094 99.6004 73.3102 100.304ZM82.6333 92.7988C81.2348 92.7988 80.0694 93.2679 78.904 94.206C77.9717 95.1442 77.5056 96.3169 77.5056 97.7241C77.5056 99.1313 77.9717 100.304 78.904 101.242C79.8364 102.18 81.0018 102.649 82.6333 102.649C84.0318 102.649 85.1972 102.18 86.3626 101.242C87.2949 100.304 87.761 99.1313 87.761 97.7241C87.761 96.3169 87.2949 95.1442 86.3626 94.206C85.1972 93.2679 84.0318 92.7988 82.6333 92.7988ZM84.9641 100.304C84.2649 101.008 83.5656 101.242 82.4002 101.242C81.4679 101.242 80.5356 101.008 79.8364 100.304C79.1371 99.6004 78.904 98.6622 78.904 97.7241C78.904 96.7859 79.1371 95.8478 79.8364 95.1442C80.5356 94.4406 81.2348 94.206 82.4002 94.206C83.3325 94.206 84.2649 94.4406 84.9641 95.1442C85.6633 95.8478 85.8964 96.7859 85.8964 97.7241C86.1295 98.6622 85.6633 99.6004 84.9641 100.304ZM97.0842 93.0333V100.304L91.4903 93.0333H89.8587V102.884H91.4903V95.6133L97.0842 102.884H98.9488V93.0333H97.0842Z" fill="currentColor"/>
</svg>
