<svg width="63" height="62" viewBox="0 0 63 62" fill="none" xmlns="http://www.w3.org/2000/svg">
<path d="M62.7981 30.4682C62.8199 47.3878 49.2093 60.8214 31.8906 61.034C14.6591 61.2466 0.328676 47.2602 0.415924 30.3619C0.503172 13.6123 14.3974 0.263672 31.7379 0.263672C49.2311 0.284928 62.7981 13.4635 62.7981 30.4682Z" fill="white" fill-opacity="0.56"/>
<path d="M62.7981 30.4682C62.8199 47.3878 49.2093 60.8214 31.8906 61.034C14.6591 61.2466 0.328676 47.2602 0.415924 30.3619C0.503172 13.6123 14.3974 0.263672 31.7379 0.263672C49.2311 0.284928 62.7981 13.4635 62.7981 30.4682Z" fill="white" fill-opacity="0.06"/>
<rect x="5.1792" y="5.02734" width="52.4015" height="52.4015" rx="26.2008" fill="url(#paint0_linear_77_39)"/>
<path d="M43.6077 31.2583C43.6163 37.9466 38.236 43.257 31.3899 43.341C24.5783 43.425 18.9134 37.8962 18.9479 31.2162C18.9824 24.5951 24.4748 19.3184 31.3295 19.3184C38.2446 19.3268 43.6077 24.5363 43.6077 31.2583Z" fill="white"/>
<defs>
<linearGradient id="paint0_linear_77_39" x1="5.1792" y1="5.02734" x2="57.5807" y2="55.996" gradientUnits="userSpaceOnUse">
<stop stop-color="currentColor"/>
<stop offset="0.52" stop-color="currentColor" stop-opacity="0.9636"/>
<stop offset="1" stop-color="currentColor" stop-opacity="0.93"/>
</linearGradient>
</defs>
</svg>
