<?xml version="1.0" encoding="UTF-8"?>
<!DOCTYPE svg PUBLIC "-//W3C//DTD SVG 1.1//EN" "http://www.w3.org/Graphics/SVG/1.1/DTD/svg11.dtd">
<!-- Creator: CorelDRAW -->
<svg xmlns="http://www.w3.org/2000/svg" xml:space="preserve" width="7.11111in" height="7.11111in" version="1.1" style="shape-rendering:geometricPrecision; text-rendering:geometricPrecision; image-rendering:optimizeQuality; fill-rule:evenodd; clip-rule:evenodd"
viewBox="0 0 7111 7111"
 xmlns:xlink="http://www.w3.org/1999/xlink">
 <defs>
  <style type="text/css">
   <![CDATA[
    .fil0 {fill:black}
   ]]>
  </style>
 </defs>
 <g id="Layer_x0020_1">
  <metadata id="CorelCorpID_0Corel-Layer"/>
  <g id="_473803816">
   <path class="fil0" d="M6936 3982l-766 0c-380,0 -691,-340 -691,-755l0 -518c0,-58 46,-104 104,-104 57,0 103,46 103,104l0 518c0,306 219,553 490,553l766 0c57,0 103,46 103,104 0,57 -57,98 -109,98z"/>
   <path class="fil0" d="M3158 5082c-57,0 -103,-46 -103,-104 0,-58 46,-104 103,-104l1872 0c0,-979 6,-1958 6,-2937 0,-46 -41,-86 -87,-86l-3311 0c-58,0 -104,-46 -104,-104 0,-57 46,-103 104,-103l3305 0c162,0 288,126 288,288l0 673 1129 0c150,0 202,133 230,202l513 1215c6,12 6,23 6,40l0 835c5,104 -81,185 -185,185l-201 0c-110,0 -98,-106 -98,-179 0,-363 -300,-662 -662,-662 -363,0 -657,299 -657,662l0 81c0,57 -46,103 -103,103 -681,0 -1363,-5 -2045,-5zm3668 -202l87 0 0 -800 -507 -1198c-23,-58 -34,-75 -40,-75l-1129 0 0 1635c150,-241 420,-403 726,-403 472,0 852,375 863,841zm-5182 202l-311 0c-81,0 -162,-35 -219,-93 -52,-57 -75,-126 -69,-201l29 -265c5,-58 57,-98 109,-86 58,5 98,57 86,109l-28 259c0,17 11,35 17,46 17,18 40,29 69,29l311 0c58,0 104,46 104,104 0,57 -41,98 -98,98z"/>
   <path class="fil0" d="M7011 4379l-161 0c-58,0 -104,-46 -104,-104 0,-57 46,-103 104,-103l161 0c57,0 103,46 103,103 0,58 -46,104 -103,104z"/>
   <path class="fil0" d="M5963 5467c-311,0 -559,-253 -559,-564 0,-311 253,-564 559,-564 311,0 564,253 564,564 0,311 -253,564 -564,564zm0 -927c-196,0 -357,162 -357,363 0,202 161,363 357,363 201,0 362,-161 362,-363 0,-201 -161,-363 -362,-363z"/>
   <path class="fil0" d="M5133 4632l-2067 0c-58,0 -104,-46 -104,-103 0,-58 46,-104 104,-104l2067 0c58,0 104,46 104,104 0,57 -46,103 -104,103zm-3397 0l-559 0c-57,0 -103,-46 -103,-103 0,-58 46,-104 103,-104l559 0c57,0 103,46 103,104 0,57 -46,103 -103,103z"/>
   <path class="fil0" d="M3078 2387l-1855 0c-57,0 -103,-47 -103,-104 0,-58 46,-104 103,-104l1855 0c57,0 103,46 103,104 0,57 -52,104 -103,104z"/>
   <path class="fil0" d="M2352 2934l-1854 0c-58,0 -104,-46 -104,-104 0,-58 46,-104 104,-104l1854 0c58,0 104,46 104,104 0,58 -52,104 -104,104z"/>
   <path class="fil0" d="M2657 3423l-1848 0c-58,0 -104,-46 -104,-104 0,-57 46,-103 104,-103l1848 0c58,0 104,46 104,103 0,58 -52,104 -104,104z"/>
   <path class="fil0" d="M1955 3918l-1855 0c-57,0 -103,-46 -103,-103 0,-58 46,-104 103,-104l1855 0c57,0 103,46 103,104 0,57 -46,103 -103,103z"/>
   <path class="fil0" d="M2404 5462c-311,0 -559,-254 -559,-559 0,-305 254,-559 559,-559 311,0 558,254 558,559 0,305 -247,559 -558,559zm0 -916c-196,0 -357,161 -357,357 0,196 161,357 357,357 196,0 357,-161 357,-357 0,-196 -161,-357 -357,-357z"/>
   <path class="fil0" d="M3158 5082c-6,0 -11,0 -17,0 -58,-12 -92,-64 -81,-116 0,-17 0,-34 0,-63 0,-363 -293,-662 -656,-662 -363,0 -662,299 -662,662 0,23 0,46 0,63 11,58 -29,110 -81,116 -58,11 -109,-29 -115,-81 -6,-35 -6,-63 -6,-98 0,-478 386,-864 864,-864 472,0 858,386 858,864 0,35 0,63 -6,98 -6,46 -52,81 -98,81z"/>
  </g>
 </g>
</svg>
