<svg width="25" height="24" viewBox="0 0 25 24" fill="none" xmlns="http://www.w3.org/2000/svg">
<path d="M4.6665 16V4H2.6665V2H5.6665C5.93172 2 6.18607 2.10536 6.37361 2.29289C6.56115 2.48043 6.6665 2.73478 6.6665 3V15H19.1045L21.1045 7H8.6665V5H22.3865C22.5385 5 22.6885 5.03466 22.8251 5.10134C22.9617 5.16801 23.0813 5.26495 23.1748 5.38479C23.2684 5.50462 23.3333 5.6442 23.3648 5.79291C23.3963 5.94162 23.3934 6.09555 23.3565 6.243L20.8565 16.243C20.8023 16.4592 20.6775 16.6512 20.5017 16.7883C20.326 16.9255 20.1094 17 19.8865 17H5.6665C5.40129 17 5.14693 16.8946 4.9594 16.7071C4.77186 16.5196 4.6665 16.2652 4.6665 16ZM6.6665 23C6.13607 23 5.62736 22.7893 5.25229 22.4142C4.87722 22.0391 4.6665 21.5304 4.6665 21C4.6665 20.4696 4.87722 19.9609 5.25229 19.5858C5.62736 19.2107 6.13607 19 6.6665 19C7.19694 19 7.70564 19.2107 8.08072 19.5858C8.45579 19.9609 8.6665 20.4696 8.6665 21C8.6665 21.5304 8.45579 22.0391 8.08072 22.4142C7.70564 22.7893 7.19694 23 6.6665 23ZM18.6665 23C18.1361 23 17.6274 22.7893 17.2523 22.4142C16.8772 22.0391 16.6665 21.5304 16.6665 21C16.6665 20.4696 16.8772 19.9609 17.2523 19.5858C17.6274 19.2107 18.1361 19 18.6665 19C19.1969 19 19.7056 19.2107 20.0807 19.5858C20.4558 19.9609 20.6665 20.4696 20.6665 21C20.6665 21.5304 20.4558 22.0391 20.0807 22.4142C19.7056 22.7893 19.1969 23 18.6665 23Z" fill="#0A0D14"/>
</svg>
