<svg width="21" height="20" viewBox="0 0 21 20" fill="none" xmlns="http://www.w3.org/2000/svg">
<path d="M6.9108 9.1665C8.34203 9.1665 9.50227 8.04722 9.50227 6.6665C9.50227 5.28579 8.34203 4.1665 6.9108 4.1665C5.47957 4.1665 4.31934 5.28579 4.31934 6.6665C4.31934 8.04722 5.47957 9.1665 6.9108 9.1665Z" stroke="#353FB5" stroke-width="1.66667"/>
<path d="M9.50195 6.6665H17.2763" stroke="#353FB5" stroke-width="1.66667"/>
<path d="M13.8216 10.8335C12.3904 10.8335 11.2302 11.9528 11.2302 13.3335C11.2302 14.7142 12.3904 15.8335 13.8216 15.8335C15.2528 15.8335 16.4131 14.7142 16.4131 13.3335C16.4131 11.9528 15.2528 10.8335 13.8216 10.8335Z" stroke="#353FB5" stroke-width="1.66667"/>
<path d="M11.2295 13.3335H3.45508" stroke="#353FB5" stroke-width="1.66667"/>
</svg>
