<svg width="30" height="19" viewBox="0 0 30 19" fill="none" xmlns="http://www.w3.org/2000/svg">
<path fill-rule="evenodd" clip-rule="evenodd" d="M14.9033 16.4392C13.3246 17.7699 11.2767 18.5732 9.03897 18.5732C4.0458 18.5732 -0.00195312 14.5736 -0.00195312 9.63988C-0.00195312 4.70613 4.0458 0.706543 9.03897 0.706543C11.2767 0.706543 13.3246 1.50987 14.9033 2.8406C16.4821 1.50987 18.53 0.706543 20.7677 0.706543C25.7609 0.706543 29.8086 4.70613 29.8086 9.63988C29.8086 14.5736 25.7609 18.5732 20.7677 18.5732C18.53 18.5732 16.4821 17.7699 14.9033 16.4392Z" fill="#ED0006"/>
<path fill-rule="evenodd" clip-rule="evenodd" d="M14.9033 16.4392C16.8472 14.8006 18.0799 12.3625 18.0799 9.63988C18.0799 6.91727 16.8472 4.47913 14.9033 2.8406C16.4821 1.50987 18.5299 0.706543 20.7677 0.706543C25.7609 0.706543 29.8086 4.70613 29.8086 9.63988C29.8086 14.5736 25.7609 18.5732 20.7677 18.5732C18.5299 18.5732 16.4821 17.7699 14.9033 16.4392Z" fill="#F9A000"/>
<path fill-rule="evenodd" clip-rule="evenodd" d="M14.9031 16.4393C16.847 14.8008 18.0796 12.3627 18.0796 9.64007C18.0796 6.91748 16.847 4.47936 14.9031 2.84082C12.9592 4.47936 11.7266 6.91748 11.7266 9.64007C11.7266 12.3627 12.9592 14.8008 14.9031 16.4393Z" fill="#FF5E00"/>
</svg>
